# xmcd CD database file
#
# Track frame offsets:
#	150
#	20777
#	37895
#	63587
#	80752
#	99945
#	127195
#	150010
#	175982
#	201190
#	229245
#
# Disc length: 3361 seconds
#
# Revision: 1
# Processed by: cddbd v1.5.1PL0 Copyright (c) Steve Scherf et al.
# Submitted via: CDex 1.51
#
DISCID=8c0d1f0b
DTITLE=山下毅雄 - ＬＵＰＩＮ　ＴＨＥ　ＨＹＰＥＲ　ＧＲＯＯＶＥ　”ＢＥＳＴ”
DYEAR=2001
DGENRE=Dance
TTITLE0=ルパン三世主題歌３　−ＴＲＩＧＧＥＲ　ｖｅｒ．−
TTITLE1=ルパン三世主題歌?　−ＲＥＤ　ＭＯＮＳＴＥＲ　ｖｅｒ．−
TTITLE2=ＤＩＳＣＯ　ＰＬＡＹＳ　ＬＵＰＩＮ　−ＮＥＷ　ＧＥＮＥＲＡＴＩＯＮ　ｖｅｒ．−
TTITLE3=ルパン三世主題歌?　−ＲＥＤ　ＭＯＮＳＴＥＲ　ｖｅｒ．−
TTITLE4=ＡＦＲＯ　ＲＯＣＫ　ＴＨＥＭＥ　−Ｂ４　ＺＡ　ＢＥＡＴ〜ＨＹＰＥＲ　ＴＥＣＨＮＯ〜ｖｅｒ．−
TTITLE5=ＭＥＤＩＵＭ　ＳＡＭＢＡ　＜＜Ｉ．Ｏ　ＳＯＮＩＣ　ｖｅｒ．＞＞
TTITLE6=ルパン三世主題歌?＜＜ＭＳＴ　−Ｈｏｔ　Ｒｅｄ−ｒｅｍｉｘ＞＞
TTITLE7=ＳＨＵＦＦＬＥ　ＲＯＣＫ　−ＬＵＰＩＮ　ＷＡＬＫＩＮ’　＜＜ＮＥＷ　ＧＥＮＥ　ｖｅｒ．＞＞
TTITLE8=ＳＣＡＴ　ＴＨＥＭＥ　＜＜ＴＲＩＧＥＲ　ｖｅｒ．＞＞
TTITLE9=ルパン三世主題歌?＜＜Ｋ−ＧＲＯＯＶＥ　ｍｉｘ＞＞
TTITLE10=ＡＦＲＯ　”ＬＵＰＩＮ　’６８”　＜ＴＲＩＧＧＥＲ　−ＡＦＲＯ　２００１−ｖｅｒ．＞
EXTD=YEAR: 2001
EXTT0=
EXTT1=
EXTT2=
EXTT3=
EXTT4=
EXTT5=
EXTT6=
EXTT7=
EXTT8=
EXTT9=
EXTT10=
PLAYORDER=
